# xmcd
#
# Track frame offsets: 
#        150
#        10077
#        19781
#        28459
#        38933
#        47528
#        57346
#        66014
#        78475
#        86966
#        95962
#        106191
#        118481
#        127576
#        138227
#        145725
#        156672
#        165605
#        173461
#        182415
#        192519
#        201759
#        209236
#        218357
#        229798
#        241369
#        251874
#
# Disc length: 3488 seconds
#
# Revision: 0
# Processed by: cddbd v1.5.2PL0 Copyright (c) Steve Scherf et al.
# Submitted via: ExactAudioCopy v1.5
#
DISCID=870d9e1b
DTITLE=Various Artist - Desperate Rhythm And Blues Vol 2
DYEAR=1900
DGENRE=
TTITLE0=Adventurers - Do It
TTITLE1=Bo Dudley - Shotgun Rider
TTITLE2=Eddy Jones And The Cyclones - Say What
TTITLE3=Jesse Allen - Love My Baby
TTITLE4=Charles Epps - Rock With The Boogie
TTITLE5=Havert Bennett - Jack You're Dead
TTITLE6=Charles Epps - Shake That Thing
TTITLE7=Babe Blountt - Bobby Sox Rock
TTITLE8=Ernest Tucker - What's The Matter Claudy
TTITLE9=Dick Barron - Miss Ann
TTITLE10=Buddy Sharpe - Movin And Groovin
TTITLE11=Classy Ballou - Dirty Deal
TTITLE12=Ronny Goode - Hokus Pokus
TTITLE13=Kenny Hamber - Do The Hully Gully
TTITLE14=Little Eddie Mint - Two More Days
TTITLE15=Ralph Wilson - What's Shakin
TTITLE16=Sonny Stevenson - Bessie Lou
TTITLE17=Doug Powell - Rockin At Midnight
TTITLE18=Stella Johnson - Yeah Baby
TTITLE19=Doug Powell - The Whip
TTITLE20=Eugene Lee - Money Blues
TTITLE21=Texas Red And Jimmy - Comin Home
TTITLE22=Tobin Matthews - Slippin And Slidin
TTITLE23=LIttle Bebby - Drinking Wine Spodie Odie
TTITLE24=The Night Owl - You Shouldn't Oughta Done It
TTITLE25=Pearl Reaves - I Want You To Love Me
TTITLE26=Little Clarence - Come Into My Heart
EXTD=
EXTT0=
EXTT1=
EXTT2=
EXTT3=
EXTT4=
EXTT5=
EXTT6=
EXTT7=
EXTT8=
EXTT9=
EXTT10=
EXTT11=
EXTT12=
EXTT13=
EXTT14=
EXTT15=
EXTT16=
EXTT17=
EXTT18=
EXTT19=
EXTT20=
EXTT21=
EXTT22=
EXTT23=
EXTT24=
EXTT25=
EXTT26=
PLAYORDER=
